<?xml version="1.0" encoding="UTF-8" standalone="no"?>
<!-- Created with Inkscape (http://www.inkscape.org/) -->

<svg
   width="30.200239mm"
   height="30.272373mm"
   viewBox="0 0 30.200239 30.272373"
   version="1.1"
   id="svg1"
   xml:space="preserve"
   sodipodi:docname="Brujula.svg"
   inkscape:version="1.3 (0e150ed6c4, 2023-07-21)"
   inkscape:export-filename="Icono4 .png"
   inkscape:export-xdpi="3.1447618"
   inkscape:export-ydpi="3.1447618"
   xmlns:inkscape="http://www.inkscape.org/namespaces/inkscape"
   xmlns:sodipodi="http://sodipodi.sourceforge.net/DTD/sodipodi-0.dtd"
   xmlns="http://www.w3.org/2000/svg"
   xmlns:svg="http://www.w3.org/2000/svg"><sodipodi:namedview
     id="namedview1"
     pagecolor="#ffffff"
     bordercolor="#000000"
     borderopacity="0.25"
     inkscape:showpageshadow="2"
     inkscape:pageopacity="0.0"
     inkscape:pagecheckerboard="0"
     inkscape:deskcolor="#d1d1d1"
     inkscape:document-units="mm"
     inkscape:zoom="2.9255612"
     inkscape:cx="554.59446"
     inkscape:cy="251.06294"
     inkscape:window-width="1920"
     inkscape:window-height="1017"
     inkscape:window-x="-8"
     inkscape:window-y="-8"
     inkscape:window-maximized="1"
     inkscape:current-layer="layer1" /><defs
     id="defs1"><linearGradient
       id="swatch24"
       inkscape:swatch="solid"><stop
         style="stop-color:#2a323d;stop-opacity:1;"
         offset="0"
         id="stop24" /></linearGradient></defs><g
     inkscape:label="Capa 1"
     inkscape:groupmode="layer"
     id="layer1"
     transform="translate(-154.34742,-42.789706)"><path
       style="fill:#f2f2f2;fill-opacity:1"
       d="m 169.07965,72.954021 c -0.2919,-0.18339 -0.42273,-0.396467 -0.42273,-0.688499 0,-0.226566 -0.017,-0.251026 -0.17407,-0.251026 -0.0957,0 -0.49164,-0.04573 -0.87976,-0.101631 -5.58327,-0.804079 -10.04577,-4.684427 -11.60099,-10.087597 -0.12446,-0.432375 -0.22628,-0.876319 -0.22628,-0.986541 0,-0.460853 0.45423,-0.836434 0.92171,-0.762116 0.30349,0.04825 0.57506,0.340655 0.66996,0.721348 1.07456,4.310807 4.00487,7.559728 8.10741,8.988921 0.73595,0.256385 1.97532,0.533291 2.70064,0.603393 l 0.48138,0.04653 v -1.261365 c 0,-1.203921 0.007,-1.271648 0.15182,-1.487164 0.31361,-0.466422 0.9775,-0.464607 1.29227,0.0035 l 0.1542,0.229333 -0.019,2.344514 -0.019,2.344514 -0.2054,0.205491 c -0.26756,0.267702 -0.63866,0.322784 -0.9322,0.138367 z m 2.5253,-1.431277 c -0.19269,-0.192855 -0.22574,-0.271675 -0.22574,-0.538269 0,-0.438428 0.27881,-0.716547 0.83223,-0.830134 0.71086,-0.145901 1.93021,-0.580732 2.6861,-0.95788 2.48157,-1.23819 4.40192,-3.138346 5.6099,-5.550929 0.32393,-0.646946 0.76493,-1.741669 0.76493,-1.898814 0,-0.06936 -0.2121,-0.09384 -0.95815,-0.110592 -0.84912,-0.01907 -0.97946,-0.03736 -1.14535,-0.160768 -0.41144,-0.306064 -0.41709,-0.912669 -0.0117,-1.254085 l 0.19985,-0.168307 h 2.34692 2.3469 l 0.20381,0.171642 c 0.36218,0.305006 0.39295,0.825941 0.068,1.151161 -0.20996,0.21014 -0.43517,0.272068 -0.9894,0.272068 h -0.3792 l -0.11426,0.415331 c -0.0628,0.228432 -0.25017,0.759225 -0.41627,1.17954 -1.60362,4.057891 -5.09087,7.178616 -9.28482,8.308932 -0.98897,0.266537 -1.24338,0.261744 -1.53378,-0.0289 z m -6.04786,-10.469676 c -0.26667,-0.162736 -0.35282,-0.323446 -0.35282,-0.658148 0,-0.214647 0.33968,-0.937506 1.79174,-3.812906 0.98709,-1.954674 1.86913,-3.62081 1.96406,-3.710072 0.24384,-0.229262 0.7434,-0.229262 0.98722,0 0.0949,0.08926 0.97697,1.755398 1.96407,3.710072 1.99276,3.946105 1.99233,3.944947 1.60105,4.336549 -0.10487,0.104964 -0.27446,0.211889 -0.37686,0.237611 -0.12623,0.03171 -0.74881,-0.07764 -1.93359,-0.339614 l -1.74741,-0.386381 -1.71016,0.37779 c -0.94059,0.207785 -1.76991,0.376983 -1.84295,0.375995 -0.073,-9.87e-4 -0.22799,-0.05989 -0.34435,-0.130896 z m 2.58525,-1.963139 0.51458,-0.109275 -0.004,-1.075328 -0.004,-1.075327 -0.59054,1.162926 c -0.32479,0.63961 -0.59212,1.184416 -0.59405,1.210681 -0.002,0.02626 0.0338,0.03602 0.0795,0.02168 0.0457,-0.01434 0.31455,-0.07525 0.59757,-0.135353 z m 2.71314,-1.073252 -0.59798,-1.186678 -0.004,1.073189 -0.003,1.07319 0.51458,0.110582 c 0.28302,0.06082 0.54446,0.119535 0.58098,0.130479 0.0365,0.01094 0.0756,0.01225 0.0869,0.0029 0.0113,-0.0093 -0.24856,-0.550995 -0.57746,-1.203668 z m -16.04986,0.776269 c -0.0771,-0.03188 -0.20204,-0.136621 -0.27759,-0.232755 -0.43479,-0.553208 -0.0379,-1.297339 0.69227,-1.298 l 0.27446,-2.48e-4 0.0449,-0.448558 c 0.42998,-4.294368 2.67473,-8.05385 6.21192,-10.403627 1.31528,-0.873748 3.54724,-1.840327 4.24956,-1.840327 0.22847,0 0.31946,0.04075 0.5045,0.22594 0.19019,0.19035 0.22575,0.273287 0.22575,0.526525 0,0.488298 -0.1824,0.642911 -1.14436,0.97003 -2.73118,0.928744 -4.92915,2.62459 -6.5096,5.022478 -1.01884,1.545813 -1.74694,3.606732 -1.94273,5.498981 l -0.0464,0.448558 1.18629,2.48e-4 c 1.35144,2.83e-4 1.53689,0.05534 1.72796,0.513022 0.12629,0.302515 0.044,0.643719 -0.21384,0.886221 l -0.17238,0.162153 -2.33524,0.01366 c -1.28438,0.0075 -2.39834,-0.01242 -2.47547,-0.0443 z m 27.4836,-0.0334 c -0.32285,-0.140542 -0.39568,-0.362579 -0.47949,-1.461874 -0.0921,-1.207842 -0.2604,-2.071593 -0.60912,-3.125794 -1.23708,-3.739867 -4.17137,-6.659548 -7.94391,-7.904393 -0.88893,-0.293326 -1.08073,-0.461142 -1.08073,-0.945592 0,-0.253238 0.0356,-0.336175 0.22575,-0.526525 0.18138,-0.181538 0.27787,-0.22594 0.49098,-0.22594 0.65675,0 2.5695,0.782574 3.90103,1.59605 3.92949,2.400649 6.54096,6.933036 6.61198,11.475545 0.0121,0.773732 -0.0625,0.962429 -0.44324,1.121658 -0.27663,0.115679 -0.40163,0.115097 -0.67325,-0.0031 z m -14.39953,-10.20912 c -0.11157,-0.03155 -0.27589,-0.135184 -0.36518,-0.230302 l -0.16233,-0.172942 v -2.452127 -2.452127 l 0.20539,-0.205565 c 0.13557,-0.135683 0.29356,-0.217128 0.46477,-0.239582 0.41617,-0.05458 0.63047,0.147089 1.31552,1.238014 l 0.6038,0.961556 0.0332,-0.840788 c 0.0376,-0.952313 0.11714,-1.140513 0.55204,-1.306175 0.29685,-0.113075 0.51539,-0.06168 0.79302,0.186501 l 0.21527,0.192446 0.0191,2.344807 c 0.0204,2.500635 0.009,2.606369 -0.30261,2.851812 -0.23735,0.186851 -0.72322,0.177085 -0.95502,-0.0192 -0.0969,-0.08205 -0.44797,-0.580909 -0.78016,-1.108566 l -0.60398,-0.959374 v 0.778766 c 0,0.521496 -0.0311,0.85319 -0.0941,1.004049 -0.15096,0.36159 -0.54307,0.540691 -0.93877,0.428797 z"
       id="path43" /></g></svg>
