<?xml version="1.0" encoding="UTF-8" standalone="no"?>
<!-- Created with Inkscape (http://www.inkscape.org/) -->

<svg
   width="27.044956mm"
   height="39.026009mm"
   viewBox="0 0 27.044956 39.026009"
   version="1.1"
   id="svg1"
   xml:space="preserve"
   sodipodi:docname="Brujula.svg"
   inkscape:version="1.3 (0e150ed6c4, 2023-07-21)"
   inkscape:export-filename="Icono4 .png"
   inkscape:export-xdpi="3.1447618"
   inkscape:export-ydpi="3.1447618"
   xmlns:inkscape="http://www.inkscape.org/namespaces/inkscape"
   xmlns:sodipodi="http://sodipodi.sourceforge.net/DTD/sodipodi-0.dtd"
   xmlns="http://www.w3.org/2000/svg"
   xmlns:svg="http://www.w3.org/2000/svg"><sodipodi:namedview
     id="namedview1"
     pagecolor="#ffffff"
     bordercolor="#000000"
     borderopacity="0.25"
     inkscape:showpageshadow="2"
     inkscape:pageopacity="0.0"
     inkscape:pagecheckerboard="0"
     inkscape:deskcolor="#d1d1d1"
     inkscape:document-units="mm"
     inkscape:zoom="2.9255612"
     inkscape:cx="554.59446"
     inkscape:cy="251.06294"
     inkscape:window-width="1920"
     inkscape:window-height="1017"
     inkscape:window-x="-8"
     inkscape:window-y="-8"
     inkscape:window-maximized="1"
     inkscape:current-layer="layer1" /><defs
     id="defs1"><linearGradient
       id="swatch24"
       inkscape:swatch="solid"><stop
         style="stop-color:#2a323d;stop-opacity:1;"
         offset="0"
         id="stop24" /></linearGradient></defs><g
     inkscape:label="Capa 1"
     inkscape:groupmode="layer"
     id="layer1"
     transform="translate(-155.76351,-84.600095)"><path
       style="fill:#f2f2f2;fill-opacity:1"
       d="m 156.34766,123.47218 c -0.17593,-0.0958 -0.3396,-0.26523 -0.43341,-0.44879 l -0.15074,-0.29491 v -17.4795 -17.47949 l 0.14686,-0.287345 c 0.0808,-0.158039 0.26446,-0.360018 0.40819,-0.448842 0.25927,-0.160232 0.2995,-0.161499 5.14079,-0.161778 l 4.87946,-2.83e-4 0.23331,-0.496145 c 0.4166,-0.885932 1.27095,-1.549863 2.22614,-1.729976 1.26797,-0.239093 2.62021,0.493432 3.20444,1.735902 l 0.23052,0.490219 4.87944,2.83e-4 4.87945,2.82e-4 0.26948,0.166545 c 0.17175,0.106143 0.31979,0.280808 0.40818,0.481598 0.13746,0.312238 0.1387,0.470642 0.1387,17.72903 v 17.41398 l -0.14286,0.32451 c -0.10372,0.2356 -0.22371,0.36754 -0.43797,0.4816 -0.29467,0.15686 -0.31374,0.15709 -12.94618,0.15703 -12.54858,-6e-5 -12.65342,-10e-4 -12.9338,-0.15392 z m 24.38043,-18.2232 V 89.159422 h -2.08038 -2.08037 v 1.806017 c 0,1.667733 -0.0109,1.830864 -0.14286,2.130524 -0.10372,0.235603 -0.22371,0.367545 -0.43797,0.481599 -0.29145,0.155143 -0.37455,0.157091 -6.70049,0.157091 -6.26377,0 -6.41174,-0.0034 -6.69192,-0.152515 -0.1826,-0.0972 -0.34144,-0.259986 -0.43797,-0.448842 -0.14407,-0.281884 -0.15146,-0.385952 -0.15146,-2.135101 v -1.838773 h -2.08039 -2.08038 v 16.089558 16.08956 h 11.44212 11.44207 z m -12.76144,11.40196 c -3.47252,-0.64365 -6.22015,-3.64919 -6.82548,-7.46614 -0.13525,-0.85286 -0.13794,-2.27408 -0.006,-3.10683 0.44896,-2.83095 2.15516,-5.34459 4.51007,-6.644381 1.30526,-0.72044 3.044,-1.06969 4.46399,-0.89664 1.95271,0.23797 3.56083,1.04712 4.92604,2.478581 1.7109,1.79395 2.59184,4.054 2.5864,6.63545 -0.005,2.38457 -0.77009,4.49862 -2.27482,6.28581 -1.16189,1.38 -3.09938,2.4781 -4.84285,2.74475 -0.69356,0.10607 -1.87712,0.0918 -2.53748,-0.0306 z m 3.01585,-2.39715 c 2.26915,-0.74207 3.89869,-2.63639 4.45079,-5.17402 0.16957,-0.77937 0.15311,-2.17503 -0.0357,-3.03012 -0.43441,-1.96708 -1.66055,-3.65405 -3.30304,-4.54446 -1.01075,-0.54794 -1.59794,-0.69878 -2.73916,-0.70368 -1.12273,-0.005 -1.77098,0.15426 -2.7498,0.67475 -1.74,0.92525 -2.99009,2.68752 -3.39024,4.77927 -0.13255,0.69288 -0.12885,2.05249 0.008,2.7903 0.2173,1.17505 0.75831,2.30394 1.55017,3.23462 0.95039,1.117 1.9877,1.76545 3.33405,2.08422 0.66305,0.15698 2.24253,0.0961 2.87537,-0.11088 z m -3.11808,-3.29713 c -0.21639,-0.12948 -2.45923,-2.59464 -2.57049,-2.82531 -0.27521,-0.57054 -0.007,-1.31409 0.55986,-1.55214 0.52343,-0.21982 0.76059,-0.0935 1.66598,0.88765 l 0.76487,0.82884 1.76625,-1.94358 c 1.95895,-2.15562 2.11034,-2.27566 2.64695,-2.09888 0.15768,0.052 0.37215,0.18843 0.4766,0.30328 0.18535,0.20382 0.35806,0.69051 0.30863,0.86972 -0.0136,0.0493 -0.0453,0.19257 -0.0705,0.31839 -0.0333,0.16603 -0.61962,0.86389 -2.13817,2.54471 -1.1508,1.27377 -2.23109,2.41472 -2.40066,2.53544 -0.3285,0.23388 -0.74733,0.2886 -1.00928,0.13188 z m 6.62254,-20.65343 v -1.143808 h -1.6424 c -1.4948,0 -1.66789,-0.01356 -1.92587,-0.150888 -0.34371,-0.182964 -0.53455,-0.515975 -0.60011,-1.047219 -0.027,-0.21913 -0.11379,-0.498212 -0.19277,-0.620181 -0.28205,-0.435575 -0.84115,-0.584327 -1.29876,-0.345546 -0.32344,0.168768 -0.50663,0.477904 -0.58101,0.980457 -0.0829,0.560049 -0.2491,0.849588 -0.59269,1.032489 -0.25798,0.137327 -0.43107,0.150888 -1.92587,0.150888 h -1.64242 v 1.143808 1.143807 h 5.20096 5.20094 z"
       id="path44" /></g></svg>
