<?xml version="1.0" encoding="UTF-8" standalone="no"?>
<!-- Created with Inkscape (http://www.inkscape.org/) -->

<svg
   width="33.563618mm"
   height="33.585808mm"
   viewBox="0 0 33.563618 33.585808"
   version="1.1"
   id="svg1"
   xml:space="preserve"
   sodipodi:docname="Brujula.svg"
   inkscape:version="1.3 (0e150ed6c4, 2023-07-21)"
   inkscape:export-filename="Icono4 .png"
   inkscape:export-xdpi="3.1447618"
   inkscape:export-ydpi="3.1447618"
   xmlns:inkscape="http://www.inkscape.org/namespaces/inkscape"
   xmlns:sodipodi="http://sodipodi.sourceforge.net/DTD/sodipodi-0.dtd"
   xmlns="http://www.w3.org/2000/svg"
   xmlns:svg="http://www.w3.org/2000/svg"><sodipodi:namedview
     id="namedview1"
     pagecolor="#ffffff"
     bordercolor="#000000"
     borderopacity="0.25"
     inkscape:showpageshadow="2"
     inkscape:pageopacity="0.0"
     inkscape:pagecheckerboard="0"
     inkscape:deskcolor="#d1d1d1"
     inkscape:document-units="mm"
     inkscape:zoom="2.9255612"
     inkscape:cx="554.59446"
     inkscape:cy="251.06294"
     inkscape:window-width="1920"
     inkscape:window-height="1017"
     inkscape:window-x="-8"
     inkscape:window-y="-8"
     inkscape:window-maximized="1"
     inkscape:current-layer="layer1" /><defs
     id="defs1"><linearGradient
       id="swatch24"
       inkscape:swatch="solid"><stop
         style="stop-color:#2a323d;stop-opacity:1;"
         offset="0"
         id="stop24" /></linearGradient></defs><g
     inkscape:label="Capa 1"
     inkscape:groupmode="layer"
     id="layer1"
     transform="translate(-120.39029,-143.21838)"><g
       id="g42"
       transform="translate(-11.241823,-0.72350792)"><g
         id="g41"
         transform="translate(4.1601705,0.09043849)"><path
           style="fill:#f2f2f2;fill-opacity:1"
           d="m 130.62158,177.34428 c -1.41955,-0.30599 -2.62517,-1.46967 -2.98453,-2.88073 -0.126,-0.49473 -0.12707,-1.4683 -0.002,-1.93841 0.29468,-1.10878 1.08189,-2.07431 2.0746,-2.54455 0.30313,-0.14359 0.60283,-0.27852 0.66599,-0.29984 0.10711,-0.0362 0.11483,-0.23956 0.11483,-3.02654 v -2.98778 h -1.50926 -1.50926 v -3.01852 -3.01852 h 4.46216 4.46217 v -3.00654 -3.00654 l -0.35118,-0.1107 c -0.79912,-0.2519 -1.68408,-1.01519 -2.10441,-1.81507 -0.32341,-0.61546 -0.42843,-0.97918 -0.47558,-1.64721 -0.15679,-2.22148 1.68367,-4.19188 3.91547,-4.19188 1.75633,0 3.38781,1.27592 3.8342,2.99859 0.45144,1.74216 -0.45041,3.68741 -2.07387,4.47321 -0.30577,0.148 -0.60546,0.26909 -0.66598,0.26909 -0.10139,0 -0.11005,0.23757 -0.11005,3.01852 v 3.01853 h 4.95432 4.95431 v -2.98777 c 0,-2.78699 -0.008,-2.99038 -0.11483,-3.02655 -0.0632,-0.0213 -0.36286,-0.15625 -0.66599,-0.29984 -1.02041,-0.48336 -1.78872,-1.44605 -2.07996,-2.60621 -0.14691,-0.58521 -0.10071,-1.59264 0.0995,-2.16942 0.52682,-1.51785 1.89762,-2.55797 3.51593,-2.66777 1.83964,-0.12483 3.57109,1.1467 4.03582,2.96379 0.41686,1.62987 -0.27269,3.36565 -1.70471,4.2912 -0.22813,0.14745 -0.57281,0.3179 -0.76596,0.37879 l -0.35118,0.1107 v 3.00654 3.00654 h 3.88853 3.88852 l 1.50819,1.50926 1.50819,1.50926 -1.50819,1.50926 -1.50819,1.50926 h -0.93562 -0.93562 v 2.99186 2.99186 l 0.14735,0.0385 c 0.081,0.0212 0.38286,0.15641 0.67071,0.30049 1.00177,0.5014 1.75811,1.46397 2.04353,2.60077 0.15728,0.62641 0.0997,1.66017 -0.12499,2.2448 -1.04838,2.72763 -4.43698,3.47701 -6.47792,1.43257 -1.26694,-1.26912 -1.52799,-3.05374 -0.68215,-4.66339 0.41962,-0.79854 1.30512,-1.56198 2.10369,-1.81371 l 0.35118,-0.1107 v -3.00654 -3.00654 h -4.95432 -4.95431 v 2.99186 c 0,2.98234 4.3e-4,2.99197 0.13753,3.02782 0.39817,0.10413 1.18885,0.5622 1.5541,0.90036 0.85384,0.79051 1.27344,1.7375 1.28058,2.89017 0.0106,1.7128 -0.98927,3.12867 -2.64411,3.74411 -0.42851,0.15936 -0.58974,0.18367 -1.24678,0.18801 -0.57535,0.004 -0.84038,-0.0242 -1.11555,-0.11789 -1.38805,-0.47253 -2.336,-1.43263 -2.72931,-2.76431 -0.14103,-0.4775 -0.15792,-1.4239 -0.0345,-1.9358 0.2656,-1.10202 1.09294,-2.1302 2.10976,-2.62192 0.30179,-0.14595 0.58719,-0.26536 0.63422,-0.26536 0.069,0 0.0855,-0.58209 0.0855,-3.01852 v -3.01853 h -4.92151 -4.92151 v 3.00814 3.00814 l 0.27889,0.0833 c 0.93177,0.27837 1.83032,1.08795 2.28433,2.05815 0.71546,1.5289 0.41089,3.24258 -0.78966,4.44313 -0.97827,0.97827 -2.2748,1.36497 -3.61092,1.07697 z m 1.68045,-2.06654 c 0.39816,-0.19275 0.74808,-0.54403 0.94941,-0.9531 0.23602,-0.47956 0.22568,-1.17155 -0.0252,-1.68233 -0.2261,-0.46043 -0.66659,-0.86059 -1.10913,-1.00758 -0.43318,-0.14388 -1.16143,-0.10282 -1.52839,0.0862 -0.33607,0.17309 -0.73015,0.5674 -0.90213,0.90267 -0.17086,0.33309 -0.22703,1.04345 -0.11433,1.44596 0.31182,1.1137 1.67686,1.71789 2.72971,1.20821 z m 11.88321,-0.0209 c 1.45018,-0.74194 1.4665,-2.75726 0.0284,-3.50175 -1.3088,-0.67752 -2.84224,0.24792 -2.85257,1.72157 -0.006,0.91749 0.60166,1.70621 1.49871,1.94385 0.34047,0.0902 0.98482,0.0106 1.32551,-0.16367 z m 11.77774,0.0403 c 0.4468,-0.19764 0.79804,-0.5507 1.00364,-1.00885 0.16012,-0.35677 0.17777,-0.46208 0.15143,-0.90305 -0.0344,-0.57572 -0.17351,-0.89645 -0.5537,-1.27664 -0.36992,-0.36992 -0.70302,-0.51801 -1.24474,-0.5534 -0.59715,-0.039 -1.02528,0.0974 -1.4336,0.45685 -1.15578,1.01735 -0.75951,2.89437 0.71291,3.37691 0.35549,0.1165 0.98962,0.0738 1.36406,-0.0918 z m 1.75157,-14.15707 0.50028,-0.49215 -0.50044,-0.4923 -0.50044,-0.49231 -13.83755,0.0166 -13.83755,0.0166 -0.0184,0.88256 c -0.0101,0.48541 -0.004,0.92096 0.0143,0.9679 0.0267,0.0697 2.57194,0.0853 13.85611,0.0853 h 13.82336 z m -19.44084,-11.56735 c 0.36497,-0.1884 0.8433,-0.73497 0.97088,-1.1094 0.33283,-0.97682 -0.12877,-2.04044 -1.07336,-2.4732 -0.4405,-0.20182 -1.17444,-0.19293 -1.60597,0.0195 -0.41277,0.20315 -0.80021,0.59097 -0.97859,0.97957 -0.21476,0.46782 -0.19797,1.24331 0.0366,1.69119 0.21032,0.40158 0.67831,0.83166 1.05663,0.97105 0.39543,0.14569 1.23989,0.10401 1.5938,-0.0787 z m 11.65766,0.0789 c 0.3991,-0.13599 0.86454,-0.55322 1.08349,-0.97128 0.23458,-0.44788 0.25136,-1.22337 0.0366,-1.69119 -0.17913,-0.39023 -0.60682,-0.81775 -0.99655,-0.99618 -0.42071,-0.19261 -1.17089,-0.19396 -1.58801,-0.003 -0.97442,0.44643 -1.42264,1.53072 -1.04738,2.53371 0.16453,0.43972 0.64601,0.9261 1.08738,1.09842 0.39978,0.15608 1.01534,0.16877 1.42446,0.0294 z"
           id="path37" /><circle
           style="fill:#ff00ff;fill-opacity:1;stroke-width:0.266191"
           id="circle37"
           cx="131.46156"
           cy="173.50104"
           r="1.9" /><circle
           style="fill:#ff00ff;fill-opacity:1;stroke-width:0.266191"
           id="circle38"
           cx="143.30766"
           cy="173.49911"
           r="1.9" /><circle
           style="fill:#ff00ff;fill-opacity:1;stroke-width:0.266191"
           id="circle39"
           cx="155.18787"
           cy="173.50281"
           r="1.9" /><circle
           style="fill:#ff00ff;fill-opacity:1;stroke-width:0.266191"
           id="circle40"
           cx="149.24408"
           cy="147.78653"
           r="1.9" /><circle
           style="fill:#ff00ff;fill-opacity:1;stroke-width:0.266191"
           id="circle41"
           cx="137.36781"
           cy="147.81244"
           r="1.9" /></g></g></g></svg>
